<svg width="2030" height="368" viewBox="0 0 2030 368" fill="none" xmlns="http://www.w3.org/2000/svg">
<g filter="url(#filter0_d)">
<g clip-path="url(#clip0)">
<mask id="path-3-inside-1" fill="white">
<path d="M445.543 457.925H343.296V276.781H191.832V457.925H89V24.1327H191.832V196.339H343.296V24.1327H445.543V457.925ZM758.703 463.883C710.07 463.883 670.714 449.185 640.636 419.789C610.558 390.194 595.519 351.761 595.519 304.489V296.147C595.519 263.175 601.476 234.077 613.39 208.852C625.5 183.627 643.078 164.162 666.125 150.457C689.171 136.553 716.515 129.601 748.156 129.601C792.687 129.601 827.843 143.704 853.625 171.908C879.406 199.914 892.296 239.043 892.296 289.295V328.324H696.007C699.523 346.398 707.238 360.6 719.152 370.928C731.066 381.256 746.496 386.421 765.441 386.421C796.691 386.421 821.105 375.298 838.683 353.052L883.8 407.276C871.496 424.557 854.015 438.361 831.359 448.689C808.898 458.819 784.679 463.883 758.703 463.883ZM747.57 207.064C718.664 207.064 701.476 226.529 696.007 265.459H795.617V257.713C796.007 241.625 792.003 229.211 783.605 220.472C775.207 211.534 763.195 207.064 747.57 207.064ZM1135.44 457.925H1036.41V0.297965H1135.44V457.925ZM1399.67 457.925H1300.65V0.297965H1399.67V457.925ZM1725.72 367.354C1725.72 358.812 1721.32 351.96 1712.54 346.796C1703.75 341.632 1687.05 336.268 1662.44 330.707C1637.83 325.146 1617.52 317.896 1601.5 308.958C1585.48 299.821 1573.28 288.797 1564.88 275.887C1556.48 262.977 1552.28 248.179 1552.28 231.495C1552.28 201.9 1564.29 177.569 1588.32 158.501C1612.34 139.235 1643.79 129.601 1682.65 129.601C1724.45 129.601 1758.04 139.235 1783.43 158.501C1808.82 177.767 1821.52 203.092 1821.52 234.474H1722.5C1722.5 208.654 1709.12 195.743 1682.36 195.743C1672.01 195.743 1663.32 198.722 1656.29 204.681C1649.25 210.441 1645.74 217.691 1645.74 226.43C1645.74 235.368 1650.04 242.618 1658.63 248.179C1667.22 253.741 1680.89 258.309 1699.65 261.885C1718.59 265.459 1735.19 269.729 1749.45 274.695C1797.11 291.379 1820.93 321.273 1820.93 364.374C1820.93 393.77 1808.04 417.704 1782.26 436.176C1756.68 454.647 1723.47 463.883 1682.65 463.883C1655.5 463.883 1631.29 458.919 1610 448.987C1588.71 439.056 1572.11 425.549 1560.19 408.468C1548.28 391.386 1542.32 373.411 1542.32 354.542H1634.61C1635 369.438 1639.88 380.362 1649.25 387.314C1658.63 394.068 1670.64 397.444 1685.29 397.444C1698.77 397.444 1708.82 394.664 1715.47 389.102C1722.3 383.54 1725.72 376.291 1725.72 367.354ZM2070.52 457.925H1971.5V135.56H2070.52V457.925ZM1965.64 52.4364C1965.64 38.1356 1970.72 26.4169 1980.87 17.2802C1991.03 8.14353 2004.21 3.57529 2020.42 3.57529C2036.63 3.57529 2049.82 8.14353 2059.97 17.2802C2070.13 26.4169 2075.21 38.1356 2075.21 52.4364C2075.21 66.7373 2070.13 78.4561 2059.97 87.5927C2049.82 96.7294 2036.63 101.298 2020.42 101.298C2004.21 101.298 1991.03 96.7294 1980.87 87.5927C1970.72 78.4561 1965.64 66.7373 1965.64 52.4364ZM2321.28 135.56L2324.5 173.398C2346.38 144.2 2376.55 129.601 2415.03 129.601C2448.04 129.601 2472.65 139.632 2488.86 159.693C2505.26 179.754 2513.76 209.944 2514.34 250.265V457.925H2415.32V254.436C2415.32 238.149 2412.1 226.232 2405.65 218.684C2399.21 210.938 2387.49 207.064 2370.5 207.064C2351.16 207.064 2336.81 214.811 2327.43 230.303V457.925H2228.7V135.56H2321.28ZM2795.57 337.858L2767.74 366.162V457.925H2669.01V0H2767.74V243.115L2777.7 229.707L2852.11 135.56H2970.47L2859.44 268.141L2977.8 457.925H2864.71L2795.57 337.858Z"/>
</mask>
<path d="M445.543 457.925H343.296V276.781H191.832V457.925H89V24.1327H191.832V196.339H343.296V24.1327H445.543V457.925ZM758.703 463.883C710.07 463.883 670.714 449.185 640.636 419.789C610.558 390.194 595.519 351.761 595.519 304.489V296.147C595.519 263.175 601.476 234.077 613.39 208.852C625.5 183.627 643.078 164.162 666.125 150.457C689.171 136.553 716.515 129.601 748.156 129.601C792.687 129.601 827.843 143.704 853.625 171.908C879.406 199.914 892.296 239.043 892.296 289.295V328.324H696.007C699.523 346.398 707.238 360.6 719.152 370.928C731.066 381.256 746.496 386.421 765.441 386.421C796.691 386.421 821.105 375.298 838.683 353.052L883.8 407.276C871.496 424.557 854.015 438.361 831.359 448.689C808.898 458.819 784.679 463.883 758.703 463.883ZM747.57 207.064C718.664 207.064 701.476 226.529 696.007 265.459H795.617V257.713C796.007 241.625 792.003 229.211 783.605 220.472C775.207 211.534 763.195 207.064 747.57 207.064ZM1135.44 457.925H1036.41V0.297965H1135.44V457.925ZM1399.67 457.925H1300.65V0.297965H1399.67V457.925ZM1725.72 367.354C1725.72 358.812 1721.32 351.96 1712.54 346.796C1703.75 341.632 1687.05 336.268 1662.44 330.707C1637.83 325.146 1617.52 317.896 1601.5 308.958C1585.48 299.821 1573.28 288.797 1564.88 275.887C1556.48 262.977 1552.28 248.179 1552.28 231.495C1552.28 201.9 1564.29 177.569 1588.32 158.501C1612.34 139.235 1643.79 129.601 1682.65 129.601C1724.45 129.601 1758.04 139.235 1783.43 158.501C1808.82 177.767 1821.52 203.092 1821.52 234.474H1722.5C1722.5 208.654 1709.12 195.743 1682.36 195.743C1672.01 195.743 1663.32 198.722 1656.29 204.681C1649.25 210.441 1645.74 217.691 1645.74 226.43C1645.74 235.368 1650.04 242.618 1658.63 248.179C1667.22 253.741 1680.89 258.309 1699.65 261.885C1718.59 265.459 1735.19 269.729 1749.45 274.695C1797.11 291.379 1820.93 321.273 1820.93 364.374C1820.93 393.77 1808.04 417.704 1782.26 436.176C1756.68 454.647 1723.47 463.883 1682.65 463.883C1655.5 463.883 1631.29 458.919 1610 448.987C1588.71 439.056 1572.11 425.549 1560.19 408.468C1548.28 391.386 1542.32 373.411 1542.32 354.542H1634.61C1635 369.438 1639.88 380.362 1649.25 387.314C1658.63 394.068 1670.64 397.444 1685.29 397.444C1698.77 397.444 1708.82 394.664 1715.47 389.102C1722.3 383.54 1725.72 376.291 1725.72 367.354ZM2070.52 457.925H1971.5V135.56H2070.52V457.925ZM1965.64 52.4364C1965.64 38.1356 1970.72 26.4169 1980.87 17.2802C1991.03 8.14353 2004.21 3.57529 2020.42 3.57529C2036.63 3.57529 2049.82 8.14353 2059.97 17.2802C2070.13 26.4169 2075.21 38.1356 2075.21 52.4364C2075.21 66.7373 2070.13 78.4561 2059.97 87.5927C2049.82 96.7294 2036.63 101.298 2020.42 101.298C2004.21 101.298 1991.03 96.7294 1980.87 87.5927C1970.72 78.4561 1965.64 66.7373 1965.64 52.4364ZM2321.28 135.56L2324.5 173.398C2346.38 144.2 2376.55 129.601 2415.03 129.601C2448.04 129.601 2472.65 139.632 2488.86 159.693C2505.26 179.754 2513.76 209.944 2514.34 250.265V457.925H2415.32V254.436C2415.32 238.149 2412.1 226.232 2405.65 218.684C2399.21 210.938 2387.49 207.064 2370.5 207.064C2351.16 207.064 2336.81 214.811 2327.43 230.303V457.925H2228.7V135.56H2321.28ZM2795.57 337.858L2767.74 366.162V457.925H2669.01V0H2767.74V243.115L2777.7 229.707L2852.11 135.56H2970.47L2859.44 268.141L2977.8 457.925H2864.71L2795.57 337.858Z" stroke="white" stroke-width="8" mask="url(#path-3-inside-1)"/>
</g>
<rect x="0.5" y="0.5" width="2029" height="359" stroke="black"/>
</g>
<defs>
<filter id="filter0_d" x="-4" y="0" width="2038" height="368" filterUnits="userSpaceOnUse" color-interpolation-filters="sRGB">
<feFlood flood-opacity="0" result="BackgroundImageFix"/>
<feColorMatrix in="SourceAlpha" type="matrix" values="0 0 0 0 0 0 0 0 0 0 0 0 0 0 0 0 0 0 127 0"/>
<feOffset dy="4"/>
<feGaussianBlur stdDeviation="2"/>
<feColorMatrix type="matrix" values="0 0 0 0 0 0 0 0 0 0 0 0 0 0 0 0 0 0 0.25 0"/>
<feBlend mode="normal" in2="BackgroundImageFix" result="effect1_dropShadow"/>
<feBlend mode="normal" in="SourceGraphic" in2="effect1_dropShadow" result="shape"/>
</filter>
<clipPath id="clip0">
<rect width="2030" height="360" fill="white"/>
</clipPath>
</defs>
</svg>
